rotated_Sprint_08100001_forces_filt10Hz.mot
version=1
nRows=24
nColumns=19
inDegrees=yes
endheader
time	R_ground_force_vx	R_ground_force_vy	R_ground_force_vz	R_ground_force_px	R_ground_force_py	R_ground_force_pz	R_ground_torque_x	R_ground_torque_y	R_ground_torque_z	L_ground_force_vx	L_ground_force_vy	L_ground_force_vz	L_ground_force_px	L_ground_force_py	L_ground_force_pz	L_ground_torque_x	L_ground_torque_y	L_ground_torque_z	
0.000000	  0.000000	  0.000000	  0.000000	  0.426822	  0.000000	 -0.731509	  0.000000	  0.000000	  0.000000	-141.528511	422.508249	  5.188782	  1.028109	  0.000000	 -0.413734	  0.000000	-28.156370	  0.000000
0.000500	  0.000000	  0.000000	  0.000000	  0.429157	 -0.000000	 -0.732183	  0.000000	  0.000000	  0.000000	-143.328531	442.320432	  8.174310	  1.025125	  0.000000	 -0.412915	  0.000000	-27.231191	  0.000000
0.001000	  0.000000	  0.000000	  0.000000	  0.431493	 -0.000000	 -0.732858	  0.000000	  0.000000	  0.000000	-145.180234	462.586261	 11.171536	  1.022284	  0.000000	 -0.412124	  0.000000	-26.332408	  0.000000
0.001500	  0.000000	  0.000000	  0.000000	  0.433828	 -0.000000	 -0.733532	  0.000000	  0.000000	  0.000000	-147.083817	483.305892	 14.178259	  1.019573	  0.000000	 -0.411357	  0.000000	-25.459782	  0.000000
0.002000	  0.000000	  0.000000	  0.000000	  0.436163	 -0.000000	 -0.734207	  0.000000	  0.000000	  0.000000	-149.039339	504.479028	 17.192255	  1.016983	  0.000000	 -0.410614	  0.000000	-24.613181	  0.000000
0.002500	  0.000000	  0.000000	  0.000000	  0.438499	  0.000000	 -0.734881	  0.000000	  0.000000	  0.000000	-151.046705	526.104903	 20.211281	  1.014503	  0.000000	 -0.409891	  0.000000	-23.792567	  0.000000
0.003000	  0.000000	  0.000000	  0.000000	  0.440834	  0.000000	 -0.735555	  0.000000	  0.000000	  0.000000	-153.105651	548.182258	 23.233083	  1.012124	  0.000000	 -0.409188	  0.000000	-22.997971	  0.000000
0.003500	  0.000000	  0.000000	  0.000000	  0.443169	  0.000000	 -0.736230	  0.000000	  0.000000	  0.000000	-155.215737	570.709322	 26.255413	  1.009838	  0.000000	 -0.408503	  0.000000	-22.229486	  0.000000
0.004000	  0.000000	  0.000000	  0.000000	  0.445504	  0.000000	 -0.736904	  0.000000	  0.000000	  0.000000	-157.376336	593.683787	 29.276033	  1.007638	  0.000000	 -0.407834	  0.000000	-21.487248	  0.000000
0.004500	  0.000000	  0.000000	  0.000000	  0.447840	  0.000000	 -0.737579	  0.000000	  0.000000	  0.000000	-159.586628	617.102793	 32.292731	  1.005518	  0.000000	 -0.407180	  0.000000	-20.771427	  0.000000
0.005000	  0.000000	  0.000000	  0.000000	  0.450175	  0.000000	 -0.738253	  0.000000	  0.000000	  0.000000	-161.845598	640.962898	 35.303326	  1.003471	  0.000000	 -0.406539	  0.000000	-20.082216	  0.000000
0.005500	  0.000000	  0.000000	  0.000000	  0.452496	  0.000000	 -0.738773	  0.000000	  0.000000	  0.000000	-164.152028	665.260060	 38.305674	  1.001491	  0.000000	 -0.405912	  0.000000	-19.419816	  0.000000
0.006000	  0.000000	  0.000000	  0.000000	  0.454817	  0.000000	 -0.739293	  0.000000	  0.000000	  0.000000	-166.504493	689.989610	 41.297670	  0.999573	  0.000000	 -0.405296	  0.000000	-18.784436	  0.000000
0.006500	  0.000000	  0.000000	  0.000000	  0.457139	  0.000000	 -0.739814	  0.000000	  0.000000	  0.000000	-168.901354	715.146234	 44.277243	  0.997713	  0.000000	 -0.404690	  0.000000	-18.176284	  0.000000
0.007000	  0.000000	  0.000000	  0.000000	  0.459460	  0.000000	 -0.740334	  0.000000	  0.000000	  0.000000	-171.340755	740.723943	 47.242358	  0.995907	  0.000000	 -0.404094	  0.000000	-17.595560	  0.000000
0.007500	  0.000000	  0.000000	  0.000000	  0.461781	  0.000000	 -0.740854	  0.000000	  0.000000	  0.000000	-173.820614	766.716052	 50.191003	  0.994149	  0.000000	 -0.403507	  0.000000	-17.042454	  0.000000
0.008000	  0.000000	  0.000000	  0.000000	  0.464102	  0.000000	 -0.741374	  0.000000	  0.000000	  0.000000	-176.338618	793.115154	 53.121192	  0.992437	  0.000000	 -0.402929	  0.000000	-16.517141	  0.000000
0.008500	  0.000000	  0.000000	  0.000000	  0.466423	  0.000000	 -0.741894	  0.000000	  0.000000	  0.000000	-178.892222	819.913093	 56.030950	  0.990767	  0.000000	 -0.402357	  0.000000	-16.019778	  0.000000
0.009000	  0.000000	  0.000000	  0.000000	  0.468745	  0.000000	 -0.742415	  0.000000	  0.000000	  0.000000	-181.478645	847.100943	 58.918303	  0.989136	  0.000000	 -0.401793	  0.000000	-15.550498	  0.000000
0.009500	  0.000000	  0.000000	  0.000000	  0.471066	  0.000000	 -0.742935	  0.000000	  0.000000	  0.000000	-184.094874	874.668976	 61.781271	  0.987540	  0.000000	 -0.401235	  0.000000	-15.109416	  0.000000
0.010000	  0.000000	  0.000000	  0.000000	  0.473387	  0.000000	 -0.743455	  0.000000	  0.000000	  0.000000	-186.737676	902.606640	 64.617848	  0.985978	  0.000000	 -0.400682	  0.000000	-14.696623	  0.000000
0.010500	  0.000000	  0.000000	  0.000000	  0.475659	  0.000000	 -0.743837	  0.000000	  0.000000	  0.000000	-189.403604	930.902551	 67.425994	  0.984446	  0.000000	 -0.400135	  0.000000	-14.312195	  0.000000
0.011000	  0.000000	  0.000000	  0.000000	  0.477930	  0.000000	 -0.744220	  0.000000	  0.000000	  0.000000	-192.089017	959.544553	 70.203617	  0.982942	  0.000000	 -0.399592	  0.000000	-13.956189	  0.000000
0.011500	  0.000000	  0.000000	  0.000000	  0.480202	  0.000000	 -0.744602	  0.000000	  0.000000	  0.000000	-194.790085	988.519823	 72.948553	  0.981464	  0.000000	 -0.399054	  0.000000	-13.628648	  0.000000
